<svg id="Layer_1" data-name="Layer 1" xmlns="http://www.w3.org/2000/svg" viewBox="0 0 512 512"><defs><style>.cls-1{fill:#141f38;}</style></defs><title>customer-service-glyph</title><path class="cls-1" d="M43.22,233.4V212.78a33.25,33.25,0,0,1,33.25-33.25C76.47,80.54,157,0,256,0S435.53,80.54,435.53,179.53a33.25,33.25,0,0,1,33.25,33.25V233.4a33.25,33.25,0,0,1,0,65.15v20.62a33.25,33.25,0,0,1-33.25,33.25h-13.3A33.25,33.25,0,0,1,389.71,326a139.09,139.09,0,0,0,5.93-40.09V226.08A139.71,139.71,0,0,0,391.54,200a33.24,33.24,0,0,1,30.69-20.48C422.23,87.87,347.66,13.3,256,13.3S89.77,87.87,89.77,179.53A33.24,33.24,0,0,1,120.46,200a139.65,139.65,0,0,0-4.09,26.06v59.84A139.07,139.07,0,0,0,122.29,326a33.25,33.25,0,0,1-32.53,26.41A126.48,126.48,0,0,0,216.1,478.75v13.3c-77,0-139.64-62.64-139.64-139.64a33.25,33.25,0,0,1-33.25-33.25V298.55a33.25,33.25,0,0,1,0-65.15Zm246-40.57a6.65,6.65,0,0,1,13.3,0,33.29,33.29,0,0,0,33.25,33.25h46.37a126.34,126.34,0,0,0-252.32,0H256A33.29,33.29,0,0,0,289.25,192.83ZM242.7,512h26.6a26.6,26.6,0,1,0,0-53.19H242.7a26.6,26.6,0,1,0,0,53.19Zm-113-272.62H256a46.56,46.56,0,0,0,39.9-22.59,46.56,46.56,0,0,0,39.9,22.59h46.55v46.55a126.34,126.34,0,1,1-252.68,0ZM282.6,285.92a13.3,13.3,0,1,0,13.3-13.3A13.3,13.3,0,0,0,282.6,285.92Zm-51.28,48.79a6.65,6.65,0,1,0-9.95,8.82,46.36,46.36,0,0,0,69.26,0,6.65,6.65,0,1,0-9.95-8.82,33.07,33.07,0,0,1-49.36,0Zm-28.51-48.79a13.3,13.3,0,1,0,13.3-13.3A13.3,13.3,0,0,0,202.81,285.92Z"/></svg>